<?xml version="1.0" encoding="UTF-8"?>
<svg version="1.1" xmlns="http://www.w3.org/2000/svg" width="1042" height="1042">
<path d="M0 0 C8.64130494 0.81848426 15.74349825 10.25255951 21.05566406 16.65893555 C31.70681202 30.14252747 39.03792195 47.55172443 37 65 C33.03905932 87.06490119 21.32635813 100.4867786 4 114 C2.07503419 115.55842909 0.1582332 117.12658313 -1.75854492 118.69506836 C-7.43641367 123.33900214 -13.15306466 127.92709218 -18.9375 132.4375 C-24.94105466 137.11946332 -30.81789044 141.94479066 -36.67675781 146.80615234 C-41.11643713 150.48040439 -45.62021834 154.04895777 -50.1875 157.5625 C-56.37788806 162.3460221 -62.08033 167.56855905 -67.74609375 172.95703125 C-69.95359849 175.05613473 -72.22225726 177.03562242 -74.56640625 178.98046875 C-88.49492855 190.82849402 -98.63132037 209.35751922 -100.22314453 227.55029297 C-101.19658423 244.59311655 -99.78920693 261.63942363 -88.19921875 275.08984375 C-85.32669808 278.09768659 -82.81017358 280.26961549 -79 282 C-79.05800781 281.23300781 -79.11601562 280.46601562 -79.17578125 279.67578125 C-80.18175479 254.9288322 -69.85778879 232.42482754 -53.8125 214.125 C-44.7738522 204.33961365 -35.45998655 195.26654245 -25 187 C-23.80641809 186.01956977 -22.615153 185.03631463 -21.42578125 184.05078125 C-12.66740603 176.81198746 -3.66397241 169.98874371 5.51171875 163.2890625 C11.42726617 158.96755476 17.24047989 154.5275372 23 150 C23.96421875 149.24203125 24.9284375 148.4840625 25.921875 147.703125 C44.32047833 132.96391239 54.40909913 117.26786989 58 94 C69.91215357 98.040136 78.75467947 112.38383899 84.375 123 C90.77087067 136.73335562 92.41512907 152.37973618 88.09765625 167.0390625 C84.11665372 177.77785223 78.73288033 186.54133739 71 195 C70.34773437 195.73347656 69.69546875 196.46695313 69.0234375 197.22265625 C62.49905318 204.16268668 54.8112883 209.69205625 47.19775391 215.36230469 C45.12988763 216.90321193 43.06942482 218.45337486 41.01171875 220.0078125 C34.65031747 224.80700243 28.25254376 229.55399227 21.82568359 234.26513672 C13.08002036 240.67932009 4.46091982 247.21482488 -4 254 C-5.00933594 254.80308594 -6.01867187 255.60617187 -7.05859375 256.43359375 C-24.56817047 270.52203201 -34.17050106 286.47540604 -37 309 C-37.48515908 316.71843988 -36.84120627 324.31904742 -36.22265625 332.01171875 C-35.77674687 339.99897276 -35.92759516 348.00328786 -36 356 C-39.02359038 353.00774216 -41.98803287 349.99387147 -44.8125 346.8125 C-45.41707031 346.13832031 -46.02164063 345.46414063 -46.64453125 344.76953125 C-48 343 -48 343 -48 341 C-48.59039062 340.73316406 -49.18078125 340.46632813 -49.7890625 340.19140625 C-52.0385904 338.97920482 -53.53516017 337.69825169 -55.375 335.9375 C-64.40978395 327.93949453 -74.88814878 322.45685094 -85.5625 317 C-113.60500709 302.6105389 -135.03517275 282.02168818 -145.6875 251.75 C-146.50912612 249.18002614 -147.26900643 246.59709101 -148 244 C-148.32226562 242.85917969 -148.64453125 241.71835937 -148.9765625 240.54296875 C-153.36989481 221.59415698 -153.32763148 199.47196768 -147 181 C-146.78569336 180.36642578 -146.57138672 179.73285156 -146.35058594 179.08007812 C-135.52910789 147.79702805 -111.26461864 124.24472056 -86 104 C-84.78402117 103.00529221 -83.56925262 102.00910374 -82.35546875 101.01171875 C-75.51652078 95.40149779 -68.61540149 89.90176429 -61.5625 84.5625 C-53.48271454 78.44223914 -45.66357495 72.03714527 -37.87597656 65.55126953 C-36.1972806 64.1631339 -34.5067182 62.79293735 -32.8046875 61.43359375 C-14.9477073 47.13308732 -3.40146624 30.3007669 -0.6640625 7.16015625 C-0.41648637 4.77472682 -0.19326352 2.39036463 0 0 Z " fill="#272525" transform="translate(320,343)"/>
<path d="M0 0 C5.61 0 11.22 0 17 0 C21.66666667 14 26.33333333 28 31 42 C34.66547526 33.26723129 37.69967791 24.33494806 40.75 15.375 C41.2614822 13.87882536 41.77319924 12.38273098 42.28515625 10.88671875 C43.52657915 7.25887125 44.7631784 3.62943165 46 0 C50.95 0 55.9 0 61 0 C64.5784639 8.53326006 67.40706218 17.24779084 70.1875 26.0625 C70.86160863 28.19689675 71.53682952 30.33090516 72.21589661 32.46372986 C72.8242773 34.37468243 73.42824962 36.28703682 74.03198242 38.19946289 C74.72779454 40.87356297 74.72779454 40.87356297 76 42 C82.93 21.21 82.93 21.21 90 0 C95.28 0 100.56 0 106 0 C103.85304032 8.13350286 101.40514775 16.1181301 98.76953125 24.10546875 C98.37424728 25.3106868 97.97896332 26.51590485 97.57170105 27.75764465 C96.53305796 30.92282209 95.49207374 34.08720873 94.44989014 37.2512207 C93.38189732 40.49559531 92.31706892 43.74100811 91.25195312 46.98632812 C89.17084471 53.32516749 87.08634484 59.6628823 85 66 C79.06 66 73.12 66 67 66 C66.15695312 63.44765625 65.31390625 60.8953125 64.4453125 58.265625 C63.62523827 55.78979738 62.80412473 53.31431676 61.98291016 50.83886719 C61.41346262 49.12047741 60.84509344 47.40172987 60.27783203 45.68261719 C59.46150539 43.20933332 58.64128839 40.7373689 57.8203125 38.265625 C57.56814972 37.49881409 57.31598694 36.73200317 57.05618286 35.94195557 C55.90563592 32.48959085 54.67650286 29.22712991 53 26 C52.61142822 27.17618896 52.22285645 28.35237793 51.82250977 29.56420898 C50.38493675 33.91303139 48.94344022 38.26054463 47.50073242 42.60766602 C46.87595616 44.49207446 46.25225558 46.37683989 45.62963867 48.26196289 C44.73636518 50.96594511 43.83927617 53.66863487 42.94140625 56.37109375 C42.6622084 57.21900986 42.38301056 58.06692596 42.09535217 58.9405365 C40.11387171 64.88612829 40.11387171 64.88612829 39 66 C37.65732587 66.08631874 36.31025678 66.10706473 34.96484375 66.09765625 C34.15595703 66.09443359 33.34707031 66.09121094 32.51367188 66.08789062 C31.66353516 66.07951172 30.81339844 66.07113281 29.9375 66.0625 C29.08349609 66.05798828 28.22949219 66.05347656 27.34960938 66.04882812 C25.23304337 66.03700373 23.11651315 66.01906769 21 66 C18.25846323 57.69112029 15.52010119 49.38120316 12.78582001 41.06993294 C11.5161717 37.21097893 10.24542044 33.35239538 8.97216797 29.49462891 C7.7441345 25.77373421 6.51897298 22.0519054 5.29582214 18.32940292 C4.82796527 16.90725723 4.35906328 15.48545493 3.88911438 14.06399918 C3.23257556 12.07757389 2.57971707 10.08997531 1.92773438 8.10205078 C1.55467163 6.96953888 1.18160889 5.83702698 0.79724121 4.67019653 C0 2 0 2 0 0 Z " fill="#272525" transform="translate(636,592)"/>
<path d="M0 0 C10.085625 -0.12375 10.085625 -0.12375 20.375 -0.25 C22.47665527 -0.28641602 24.57831055 -0.32283203 26.74365234 -0.36035156 C28.4410704 -0.37205244 30.13849982 -0.38224094 31.8359375 -0.390625 C32.6916333 -0.41108887 33.5473291 -0.43155273 34.42895508 -0.45263672 C41.28060726 -0.45652639 48.38129599 0.8335444 53.69491577 5.48309326 C57.63803165 10.03695083 58.28839866 13.93341819 58.22265625 19.71875 C57.74687154 24.59345655 55.0009699 28.28451345 52 32 C52.928125 32.53625 53.85625 33.0725 54.8125 33.625 C58.45320214 36.33768003 59.59364714 37.7028107 61 42 C61.66897518 48.234477 61.73723864 53.71631779 58 59 C53.0058487 63.9941513 46.90201315 66.12737103 39.9609375 66.34057617 C38.09889086 66.33983648 36.23679366 66.32367094 34.375 66.29296875 C33.4984375 66.28994751 32.621875 66.28692627 31.71875 66.28381348 C28.47904498 66.26824876 25.23950927 66.22636586 22 66.1875 C14.74 66.125625 7.48 66.06375 0 66 C0 44.22 0 22.44 0 0 Z M16 12 C16 16.95 16 21.9 16 27 C18.6881249 27.08164159 21.373723 27.14079668 24.0625 27.1875 C24.81466797 27.21263672 25.56683594 27.23777344 26.34179688 27.26367188 C31.66313494 27.33278016 35.30528291 26.56564794 40 24 C42.27671738 21.25158089 42.27671738 21.25158089 41.8125 18.5 C40.93014153 15.78505087 40.27673937 14.6864736 38 13 C35.16765058 12.11705765 32.62930742 11.88121923 29.671875 11.90234375 C28.47304688 11.90717773 28.47304688 11.90717773 27.25 11.91210938 C26.0125 11.92467773 26.0125 11.92467773 24.75 11.9375 C23.90953125 11.94201172 23.0690625 11.94652344 22.203125 11.95117188 C20.13538599 11.96292039 18.06768376 11.98085478 16 12 Z M16 39 C16 43.95 16 48.9 16 54 C19.56295812 54.08104454 23.12406707 54.14052442 26.6875 54.1875 C27.69490234 54.21263672 28.70230469 54.23777344 29.74023438 54.26367188 C36.90654894 54.44186012 36.90654894 54.44186012 43 51 C45.28992684 48.18467943 45.28992684 48.18467943 44.9375 45 C44.28043723 41.87435441 44.28043723 41.87435441 41.78637695 40.33081055 C38.72352633 38.86795251 36.85017003 38.65055581 33.48046875 38.70703125 C31.9480957 38.7215332 31.9480957 38.7215332 30.38476562 38.73632812 C28.80211914 38.7740332 28.80211914 38.7740332 27.1875 38.8125 C26.11306641 38.82603516 25.03863281 38.83957031 23.93164062 38.85351562 C21.28754459 38.88877024 18.64370744 38.94257434 16 39 Z " fill="#272525" transform="translate(812,592)"/>
<path d="M0 0 C7.79784152 6.54012514 11.48123624 14.92185595 12.3671875 24.8984375 C12.73341735 35.19356543 9.34176609 43.83752208 2.66015625 51.6640625 C-5.6607284 59.59840239 -15.76781 61.59488188 -26.87182617 61.3918457 C-37.57229457 60.90696902 -44.8595193 57.87468732 -52.64453125 50.38671875 C-60.49543964 41.29098164 -61.66694896 31.51531913 -60.8125 19.875 C-59.16122325 11.67120468 -55.24928983 5.22168833 -48.8125 -0.125 C-33.40522835 -9.50763337 -15.14515796 -10.62421529 0 0 Z M-40.375 13.671875 C-43.71425568 18.4151359 -45.14800403 23.07275383 -44.8125 28.875 C-43.64815825 35.04396859 -41.28516819 39.50634735 -36.8125 43.875 C-31.43829185 47.26308775 -26.07114767 48.5186448 -19.8125 47.25 C-13.99252336 45.53558828 -9.50107805 42.58844225 -6.375 37.3125 C-3.60092977 31.01105598 -3.78049253 23.86239005 -6 17.4375 C-9.48790971 12.50631731 -13.03910339 8.8694461 -18.8125 6.875 C-27.72329559 5.73130127 -34.34664127 6.73926246 -40.375 13.671875 Z " fill="#272525" transform="translate(621.8125,598.125)"/>
<path d="M0 0 C6.06375 -0.0825 12.1275 -0.165 18.375 -0.25 C20.26782715 -0.28641602 22.1606543 -0.32283203 24.11083984 -0.36035156 C34.39996024 -0.47592965 42.95593234 -0.04406954 51.4375 6.4375 C56.91244295 11.91244295 58.14228962 16.68907591 58.3125 24.25 C58.24464024 30.97565583 57.18137382 35.68877419 52.46875 40.59375 C48.60833333 44 48.60833333 44 46 44 C49.26542755 50.35816421 53.09834509 56.02758476 57.42578125 61.71484375 C59 64 59 64 59 66 C46.55794386 67.43562186 46.55794386 67.43562186 41 66 C37.08085186 62.54475103 35.18875213 58.68065553 33 54 C32.00294984 52.66445937 31.0038314 51.33045117 30 50 C30 49.34 30 48.68 30 48 C25.71 48 21.42 48 17 48 C17 53.94 17 59.88 17 66 C11.39 66 5.78 66 0 66 C0 44.22 0 22.44 0 0 Z M17 13 C17 20.26 17 27.52 17 35 C20.774375 35.0928125 20.774375 35.0928125 24.625 35.1875 C25.40568848 35.21481201 26.18637695 35.24212402 26.99072266 35.27026367 C31.72997132 35.32621063 34.88026068 34.57716024 39 32 C41.80606686 28.83185999 42 27.27863806 42 23 C41.26874688 18.74908901 39.43991856 16.6399375 36 14 C32.21169714 12.59366947 28.231814 12.88895177 24.25 12.9375 C21.8575 12.958125 19.465 12.97875 17 13 Z " fill="#272525" transform="translate(496,592)"/>
<path d="M0 0 C16.83 0 33.66 0 51 0 C51 4.29 51 8.58 51 13 C39.45 13 27.9 13 16 13 C16 17.29 16 21.58 16 26 C26.23 26 36.46 26 47 26 C47 30.29 47 34.58 47 39 C36.77 39 26.54 39 16 39 C16 43.62 16 48.24 16 53 C27.88 53 39.76 53 52 53 C52 57.29 52 61.58 52 66 C34.84 66 17.68 66 0 66 C0 44.22 0 22.44 0 0 Z " fill="#272525" transform="translate(749,592)"/>
<path d="M0 0 C6.06375 -0.0825 12.1275 -0.165 18.375 -0.25 C20.26782715 -0.28641602 22.1606543 -0.32283203 24.11083984 -0.36035156 C34.35125368 -0.47511597 42.75399258 0.07110275 51.375 6.1875 C56.34194081 11.50922229 58.22238898 16.73584499 58.5 24 C58.20787706 31.40673009 56.25451419 37.21141444 50.8125 42.375 C43.33014073 47.9385129 35.50091157 48.42143319 26.4375 48.1875 C25.42880859 48.17396484 24.42011719 48.16042969 23.38085938 48.14648438 C20.92033712 48.11150065 18.46009418 48.05770855 16 48 C16 53.94 16 59.88 16 66 C10.72 66 5.44 66 0 66 C0 44.22 0 22.44 0 0 Z M16 13 C16 20.26 16 27.52 16 35 C18.495625 35.061875 20.99125 35.12375 23.5625 35.1875 C24.33408447 35.21481201 25.10566895 35.24212402 25.90063477 35.27026367 C31.0022452 35.33072624 34.48725297 34.41855925 39 32 C41.47814609 28.59254913 42 26.64943093 42 22.4375 C40.80173225 18.3184546 39.34244475 16.64286329 36 14 C31.97628234 12.68989304 27.93519469 12.88980668 23.75 12.9375 C19.91375 12.9684375 19.91375 12.9684375 16 13 Z " fill="#272525" transform="translate(366,592)"/>
<path d="M0 0 C5.64853577 -0.9436069 11.45898343 -1.86195585 17 0 C21.23388856 3.52371181 23.43258529 8.70989814 25.75878906 13.59228516 C28.16572296 18.26128243 31.12226178 22.61096467 34 27 C34.59349243 25.77313477 34.59349243 25.77313477 35.19897461 24.52148438 C46.4565041 1.86766266 46.4565041 1.86766266 52.42626953 -1.27880859 C57.50706045 -2.35766982 62.0873653 -1.47743841 67 0 C63.73719486 6.30660797 60.1878525 12.33615056 56.29296875 18.265625 C46.03753262 34.08121332 38.75010605 46.43570477 41 66 C35.72 66 30.44 66 25 66 C25.14824219 64.63875 25.29648437 63.2775 25.44921875 61.875 C26.66202492 40.91182909 16.14410753 26.71116394 5 10 C0 2.34428086 0 2.34428086 0 0 Z " fill="#272525" transform="translate(425,592)"/>
</svg>
