<?xml version="1.0" standalone="no"?>
<!DOCTYPE svg PUBLIC "-//W3C//DTD SVG 20010904//EN"
 "http://www.w3.org/TR/2001/REC-SVG-20010904/DTD/svg10.dtd">
<svg version="1.0" xmlns="http://www.w3.org/2000/svg"
 width="1042.000000pt" height="1042.000000pt" viewBox="0 0 1042.000000 1042.000000"
 preserveAspectRatio="xMidYMid meet">

<g transform="translate(0.000000,1042.000000) scale(0.100000,-0.100000)"
fill="#000000" stroke="none">
<path d="M5625 7513 c-14 -149 -45 -261 -103 -378 -82 -166 -171 -257 -517
-533 -148 -119 -344 -275 -435 -347 -596 -476 -843 -802 -937 -1238 -28 -127
-25 -446 5 -585 106 -489 367 -819 832 -1052 300 -150 499 -303 627 -482 20
-27 37 -47 39 -46 1 2 -1 69 -7 148 -21 320 -22 470 -5 568 32 182 104 325
230 460 99 104 215 197 666 534 409 305 493 376 585 490 73 91 156 249 181
343 55 212 13 441 -118 640 -47 71 -240 285 -258 285 -4 0 -11 -25 -15 -56
-17 -139 -79 -290 -166 -407 -79 -105 -209 -220 -489 -432 -458 -346 -597
-462 -771 -642 -244 -253 -377 -540 -396 -855 -3 -60 -10 -108 -15 -108 -44 0
-169 126 -212 215 -84 171 -107 439 -56 638 48 188 130 326 294 496 160 163
321 300 951 802 390 312 469 403 536 619 33 106 34 291 1 403 -53 186 -178
371 -349 519 -43 38 -81 68 -85 68 -3 0 -9 -30 -13 -67z"/>
</g>
</svg>
